<svg width="50" height="45" viewBox="0 0 50 45" fill="none" xmlns="http://www.w3.org/2000/svg">
<path d="M35.1562 35.0034C38.1766 35.0034 40.625 32.8094 40.625 30.103C40.625 27.3965 38.1766 25.2025 35.1562 25.2025C32.1359 25.2025 29.6875 27.3965 29.6875 30.103C29.6875 32.8094 32.1359 35.0034 35.1562 35.0034Z" stroke="white" stroke-width="3" stroke-linecap="round" stroke-linejoin="round"/>
<path d="M10.1562 40.604C13.1766 40.604 15.625 38.41 15.625 35.7035C15.625 32.9971 13.1766 30.803 10.1562 30.803C7.13594 30.803 4.6875 32.9971 4.6875 35.7035C4.6875 38.41 7.13594 40.604 10.1562 40.604Z" stroke="white" stroke-width="3" stroke-linecap="round" stroke-linejoin="round"/>
<path d="M40.625 14.0014L15.625 19.602" stroke="white" stroke-width="3" stroke-linecap="round" stroke-linejoin="round"/>
<path d="M15.625 35.7036V11.2011L40.625 5.60059V30.103" stroke="white" stroke-width="3" stroke-linecap="round" stroke-linejoin="round"/>
</svg>
