<svg width="20" height="20" viewBox="0 0 25 25" fill="none" xmlns="http://www.w3.org/2000/svg">
<path d="M4.6875 3.90636L20.3125 21.0939" stroke="black" stroke-width="1" stroke-linecap="round" stroke-linejoin="round"/>
<path d="M15.1277 15.3905C14.3611 16.0873 13.3491 16.451 12.3143 16.4017C11.2795 16.3524 10.3067 15.8941 9.60987 15.1275C8.91301 14.361 8.54918 13.349 8.59841 12.3142C8.64764 11.2795 9.10589 10.3066 9.87237 9.6097" stroke="black" stroke-width="1" stroke-linecap="round" stroke-linejoin="round"/>
<path d="M7.22602 6.6987C3.24465 8.71487 1.5625 12.5001 1.5625 12.5001C1.5625 12.5001 4.6875 19.5306 12.5 19.5306C14.3305 19.5452 16.1381 19.1236 17.7732 18.3007" stroke="black" stroke-width="1" stroke-linecap="round" stroke-linejoin="round"/>
<path d="M20.3722 16.5137C22.5013 14.6068 23.4377 12.5001 23.4377 12.5001C23.4377 12.5001 20.3127 5.46809 12.5002 5.46809C11.8236 5.46699 11.148 5.522 10.4805 5.63256" stroke="black" stroke-width="1" stroke-linecap="round" stroke-linejoin="round"/>
<path d="M13.2351 8.66299C14.0654 8.82242 14.8215 9.24674 15.3902 9.87231C15.9589 10.4979 16.3094 11.291 16.3892 12.1326" stroke="black" stroke-width="1" stroke-linecap="round" stroke-linejoin="round"/>
</svg>
