<svg width="50" height="45" viewBox="0 0 50 45" fill="none" xmlns="http://www.w3.org/2000/svg">
<path d="M4.6875 10.5011H29.6875C31.3451 10.5011 32.9348 11.0912 34.1069 12.1415C35.279 13.1918 35.9375 14.6163 35.9375 16.1016V32.9033C35.9375 33.2746 35.7729 33.6308 35.4799 33.8933C35.1868 34.1559 34.7894 34.3034 34.375 34.3034H9.375C7.7174 34.3034 6.12769 33.7134 4.95558 32.6631C3.78348 31.6128 3.125 30.1882 3.125 28.7029V11.9012C3.125 11.5299 3.28962 11.1738 3.58265 10.9112C3.87567 10.6486 4.2731 10.5011 4.6875 10.5011V10.5011Z" stroke="white" stroke-width="3" stroke-linecap="round" stroke-linejoin="round"/>
<path d="M35.9375 19.6019L46.875 14.0014V30.803L35.9375 25.2025" stroke="white" stroke-width="3" stroke-linecap="round" stroke-linejoin="round"/>
</svg>
