<svg width="50" height="45" viewBox="0 0 50 45" fill="none" xmlns="http://www.w3.org/2000/svg">
<path d="M44.0344 23.8024H37.7844C36.9556 23.8024 36.1607 24.0974 35.5747 24.6226C34.9886 25.1477 34.6594 25.86 34.6594 26.6026V33.6033C34.6594 34.346 34.9886 35.0583 35.5747 35.5834C36.1607 36.1086 36.9556 36.4036 37.7844 36.4036H40.9094C41.7382 36.4036 42.533 36.1086 43.1191 35.5834C43.7051 35.0583 44.0344 34.346 44.0344 33.6033V23.8024ZM44.0344 23.8024C44.0344 21.5852 43.5447 19.39 42.5935 17.3433C41.6423 15.2965 40.2484 13.4387 38.4923 11.8769C36.7361 10.3151 34.6523 9.08017 32.361 8.24337C30.0698 7.40657 27.6164 6.98441 25.1422 7.00122C22.668 6.98441 20.2146 7.40657 17.9233 8.24337C15.6321 9.08017 13.5483 10.3151 11.7921 11.8769C10.0359 13.4387 8.64208 15.2965 7.69089 17.3433C6.73971 19.39 6.25 21.5852 6.25 23.8024V33.6033C6.25 34.346 6.57924 35.0583 7.16529 35.5834C7.75134 36.1086 8.5462 36.4036 9.375 36.4036H12.5C13.3288 36.4036 14.1237 36.1086 14.7097 35.5834C15.2958 35.0583 15.625 34.346 15.625 33.6033V26.6026C15.625 25.86 15.2958 25.1477 14.7097 24.6226C14.1237 24.0974 13.3288 23.8024 12.5 23.8024H6.25" stroke="white" stroke-width="3" stroke-linecap="round" stroke-linejoin="round"/>
</svg>
