<svg width="150" height="30" viewBox="0 0 150 30" fill="none" xmlns="http://www.w3.org/2000/svg">
<g filter="url(#filter0_d)">
<path fill-rule="evenodd" clip-rule="evenodd" d="M15 1C12.7376 1 12.5237 4.94058 11.1768 6.33286C9.82987 7.72514 5.64244 6.13324 5.06065 8.60448C4.48008 11.077 8.24706 11.9159 8.71151 14.0371C9.17841 16.1584 6.87692 19.1388 8.84352 20.622C10.8101 22.104 12.9271 18.7497 15 18.7497C17.0729 18.7497 19.1899 22.104 21.1565 20.622C23.1231 19.1388 20.8228 16.1584 21.2885 14.0371C21.7541 11.9159 25.5199 11.077 24.9393 8.60448C24.3588 6.13324 20.1701 7.72514 18.8244 6.33286C17.4775 4.94058 17.2624 1 15 1Z" fill="#BF62EA" stroke="#BF62EA" stroke-width="1.66667" stroke-linecap="round" stroke-linejoin="round"/>
</g>
<g filter="url(#filter1_d)">
<path fill-rule="evenodd" clip-rule="evenodd" d="M75 1C72.7376 1 72.5237 4.94058 71.1768 6.33286C69.8299 7.72514 65.6424 6.13324 65.0607 8.60448C64.4801 11.077 68.2471 11.9159 68.7115 14.0371C69.1784 16.1584 66.8769 19.1388 68.8435 20.622C70.8101 22.104 72.9271 18.7497 75 18.7497C77.0729 18.7497 79.1899 22.104 81.1565 20.622C83.1231 19.1388 80.8228 16.1584 81.2885 14.0371C81.7541 11.9159 85.5199 11.077 84.9393 8.60448C84.3588 6.13324 80.1701 7.72514 78.8244 6.33286C77.4775 4.94058 77.2624 1 75 1Z" fill="#BF62EA" stroke="#BF62EA" stroke-width="1.66667" stroke-linecap="round" stroke-linejoin="round"/>
</g>
<g filter="url(#filter2_d)">
<path fill-rule="evenodd" clip-rule="evenodd" d="M105 1C102.738 1 102.524 4.94058 101.177 6.33286C99.8299 7.72514 95.6424 6.13324 95.0607 8.60448C94.4801 11.077 98.2471 11.9159 98.7115 14.0371C99.1784 16.1584 96.8769 19.1388 98.8435 20.622C100.81 22.104 102.927 18.7497 105 18.7497C107.073 18.7497 109.19 22.104 111.156 20.622C113.123 19.1388 110.823 16.1584 111.288 14.0371C111.754 11.9159 115.52 11.077 114.939 8.60448C114.359 6.13324 110.17 7.72514 108.824 6.33286C107.477 4.94058 107.262 1 105 1Z" fill="#BF62EA" stroke="#BF62EA" stroke-width="1.66667" stroke-linecap="round" stroke-linejoin="round"/>
</g>
<g filter="url(#filter3_d)">
<path fill-rule="evenodd" clip-rule="evenodd" d="M135 1C132.738 1 132.524 4.94058 131.177 6.33286C129.83 7.72514 125.642 6.13324 125.061 8.60448C124.48 11.077 128.247 11.9159 128.712 14.0371C129.178 16.1584 126.877 19.1388 128.844 20.622C130.81 22.104 132.927 18.7497 135 18.7497C137.073 18.7497 139.19 22.104 141.156 20.622C143.123 19.1388 140.823 16.1584 141.288 14.0371C141.754 11.9159 145.52 11.077 144.939 8.60448C144.359 6.13324 140.17 7.72514 138.824 6.33286C137.477 4.94058 137.262 1 135 1Z" fill="#BF62EA"/>
<path fill-rule="evenodd" clip-rule="evenodd" d="M135 1C132.738 1 132.524 4.94058 131.177 6.33286C129.83 7.72514 125.642 6.13324 125.061 8.60448C124.48 11.077 128.247 11.9159 128.712 14.0371C129.178 16.1584 126.877 19.1388 128.844 20.622C130.81 22.104 132.927 18.7497 135 18.7497C137.073 18.7497 139.19 22.104 141.156 20.622C143.123 19.1388 140.823 16.1584 141.288 14.0371C141.754 11.9159 145.52 11.077 144.939 8.60448C144.359 6.13324 140.17 7.72514 138.824 6.33286C137.477 4.94058 137.262 1 135 1Z" fill="url(#paint0_linear)"/>
<path fill-rule="evenodd" clip-rule="evenodd" d="M135 1C132.738 1 132.524 4.94058 131.177 6.33286C129.83 7.72514 125.642 6.13324 125.061 8.60448C124.48 11.077 128.247 11.9159 128.712 14.0371C129.178 16.1584 126.877 19.1388 128.844 20.622C130.81 22.104 132.927 18.7497 135 18.7497C137.073 18.7497 139.19 22.104 141.156 20.622C143.123 19.1388 140.823 16.1584 141.288 14.0371C141.754 11.9159 145.52 11.077 144.939 8.60448C144.359 6.13324 140.17 7.72514 138.824 6.33286C137.477 4.94058 137.262 1 135 1Z" stroke="#BF62EA" stroke-width="1.66667" stroke-linecap="round" stroke-linejoin="round"/>
</g>
<g filter="url(#filter4_d)">
<path fill-rule="evenodd" clip-rule="evenodd" d="M45 1C42.7376 1 42.5237 4.94058 41.1768 6.33286C39.8299 7.72514 35.6424 6.13324 35.0607 8.60448C34.4801 11.077 38.2471 11.9159 38.7115 14.0371C39.1784 16.1584 36.8769 19.1388 38.8435 20.622C40.8101 22.104 42.9271 18.7497 45 18.7497C47.0729 18.7497 49.1899 22.104 51.1565 20.622C53.1231 19.1388 50.8228 16.1584 51.2885 14.0371C51.7541 11.9159 55.5199 11.077 54.9393 8.60448C54.3588 6.13324 50.1701 7.72514 48.8244 6.33286C47.4775 4.94058 47.2624 1 45 1Z" fill="#BF62EA" stroke="#BF62EA" stroke-width="1.66667" stroke-linecap="round" stroke-linejoin="round"/>
</g>
<defs>
<filter id="filter0_d" x="0.165527" y="0.166748" width="29.6691" height="29.6665" filterUnits="userSpaceOnUse" color-interpolation-filters="sRGB">
<feFlood flood-opacity="0" result="BackgroundImageFix"/>
<feColorMatrix in="SourceAlpha" type="matrix" values="0 0 0 0 0 0 0 0 0 0 0 0 0 0 0 0 0 0 127 0"/>
<feOffset dy="4"/>
<feGaussianBlur stdDeviation="2"/>
<feColorMatrix type="matrix" values="0 0 0 0 0 0 0 0 0 0 0 0 0 0 0 0 0 0 0.25 0"/>
<feBlend mode="normal" in2="BackgroundImageFix" result="effect1_dropShadow"/>
<feBlend mode="normal" in="SourceGraphic" in2="effect1_dropShadow" result="shape"/>
</filter>
<filter id="filter1_d" x="60.1655" y="0.166748" width="29.6691" height="29.6665" filterUnits="userSpaceOnUse" color-interpolation-filters="sRGB">
<feFlood flood-opacity="0" result="BackgroundImageFix"/>
<feColorMatrix in="SourceAlpha" type="matrix" values="0 0 0 0 0 0 0 0 0 0 0 0 0 0 0 0 0 0 127 0"/>
<feOffset dy="4"/>
<feGaussianBlur stdDeviation="2"/>
<feColorMatrix type="matrix" values="0 0 0 0 0 0 0 0 0 0 0 0 0 0 0 0 0 0 0.25 0"/>
<feBlend mode="normal" in2="BackgroundImageFix" result="effect1_dropShadow"/>
<feBlend mode="normal" in="SourceGraphic" in2="effect1_dropShadow" result="shape"/>
</filter>
<filter id="filter2_d" x="90.1655" y="0.166748" width="29.6691" height="29.6665" filterUnits="userSpaceOnUse" color-interpolation-filters="sRGB">
<feFlood flood-opacity="0" result="BackgroundImageFix"/>
<feColorMatrix in="SourceAlpha" type="matrix" values="0 0 0 0 0 0 0 0 0 0 0 0 0 0 0 0 0 0 127 0"/>
<feOffset dy="4"/>
<feGaussianBlur stdDeviation="2"/>
<feColorMatrix type="matrix" values="0 0 0 0 0 0 0 0 0 0 0 0 0 0 0 0 0 0 0.25 0"/>
<feBlend mode="normal" in2="BackgroundImageFix" result="effect1_dropShadow"/>
<feBlend mode="normal" in="SourceGraphic" in2="effect1_dropShadow" result="shape"/>
</filter>
<filter id="filter3_d" x="120.166" y="0.166748" width="29.6691" height="29.6665" filterUnits="userSpaceOnUse" color-interpolation-filters="sRGB">
<feFlood flood-opacity="0" result="BackgroundImageFix"/>
<feColorMatrix in="SourceAlpha" type="matrix" values="0 0 0 0 0 0 0 0 0 0 0 0 0 0 0 0 0 0 127 0"/>
<feOffset dy="4"/>
<feGaussianBlur stdDeviation="2"/>
<feColorMatrix type="matrix" values="0 0 0 0 0 0 0 0 0 0 0 0 0 0 0 0 0 0 0.25 0"/>
<feBlend mode="normal" in2="BackgroundImageFix" result="effect1_dropShadow"/>
<feBlend mode="normal" in="SourceGraphic" in2="effect1_dropShadow" result="shape"/>
</filter>
<filter id="filter4_d" x="30.1655" y="0.166748" width="29.6691" height="29.6665" filterUnits="userSpaceOnUse" color-interpolation-filters="sRGB">
<feFlood flood-opacity="0" result="BackgroundImageFix"/>
<feColorMatrix in="SourceAlpha" type="matrix" values="0 0 0 0 0 0 0 0 0 0 0 0 0 0 0 0 0 0 127 0"/>
<feOffset dy="4"/>
<feGaussianBlur stdDeviation="2"/>
<feColorMatrix type="matrix" values="0 0 0 0 0 0 0 0 0 0 0 0 0 0 0 0 0 0 0.25 0"/>
<feBlend mode="normal" in2="BackgroundImageFix" result="effect1_dropShadow"/>
<feBlend mode="normal" in="SourceGraphic" in2="effect1_dropShadow" result="shape"/>
</filter>
<linearGradient id="paint0_linear" x1="135" y1="1" x2="135" y2="21" gradientUnits="userSpaceOnUse">
<stop offset="0.197917" stop-color="white"/>
<stop offset="0.46875" stop-color="white"/>
<stop offset="0.510417" stop-color="white" stop-opacity="0"/>
</linearGradient>
</defs>
</svg>
