<svg width="30" height="30" viewBox="0 0 30 30" fill="none" xmlns="http://www.w3.org/2000/svg">
<path fill-rule="evenodd" clip-rule="evenodd" d="M30 15C30 6.72 23.265 0 15 0L14.5804 0.00576631C6.49413 0.228245 0 6.86034 0 15C0 23.265 6.72 30 15 30C23.265 30 30 23.265 30 15ZM12.0301 21.0001C11.5951 20.5501 11.5951 19.8451 12.0451 19.4101L16.4701 15.0001L12.0451 10.5901C11.5951 10.1551 11.5951 9.43509 12.0301 9.00009C12.4801 8.55009 13.1851 8.55009 13.6201 9.00009L18.8551 14.2051C19.0651 14.4151 19.1851 14.7001 19.1851 15.0001C19.1851 15.3001 19.0651 15.5851 18.8551 15.7951L13.6201 21.0001C13.4101 21.2251 13.1251 21.3301 12.8401 21.3301C12.5401 21.3301 12.2551 21.2251 12.0301 21.0001Z" fill="#BF62EA"/>
</svg>
