<svg width="229" height="84" viewBox="0 0 229 84" fill="none" xmlns="http://www.w3.org/2000/svg">
<path d="M31.0075 30.2073C30.6331 29.7914 29.8429 29.2507 28.6367 28.5852C27.4305 27.8781 25.9747 27.2542 24.2694 26.7135C22.6057 26.1312 20.8796 25.8401 19.0911 25.8401C14.3911 25.8401 12.0411 27.5038 12.0411 30.8312C12.0411 32.0374 12.4155 32.994 13.1641 33.7011C13.9128 34.4082 15.0358 35.0113 16.5331 35.5104C18.0305 36.0095 19.9022 36.5502 22.1482 37.1325C25.0597 37.8812 27.576 38.7547 29.6973 39.7529C31.8601 40.7511 33.503 42.0821 34.626 43.7458C35.7906 45.3679 36.3729 47.5307 36.3729 50.2343C36.3729 53.3953 35.6035 55.9533 34.0645 57.9082C32.5672 59.8214 30.5707 61.2148 28.0752 62.0882C25.5796 62.9617 22.8761 63.3984 19.9646 63.3984C16.6371 63.3984 13.3305 62.8993 10.0447 61.9011C6.80043 60.8612 3.90973 59.4471 1.37256 57.6586L5.17831 50.2343C5.55264 50.6086 6.21813 51.1077 7.17476 51.7316C8.1314 52.3139 9.296 52.917 10.6686 53.5409C12.0411 54.1232 13.5385 54.6223 15.1606 55.0382C16.7827 55.4542 18.4256 55.6621 20.0893 55.6621C24.8309 55.6621 27.2017 54.144 27.2017 51.1077C27.2017 49.8183 26.7234 48.7785 25.7668 47.9883C24.8101 47.198 23.4584 46.5325 21.7115 45.9918C20.0062 45.4511 18.0097 44.848 15.7221 44.1825C12.8938 43.3923 10.5438 42.5188 8.67211 41.5622C6.84202 40.5639 5.46946 39.337 4.55441 37.8812C3.63937 36.3839 3.18185 34.4914 3.18185 32.2038C3.18185 29.1675 3.88893 26.6303 5.30309 24.5923C6.75883 22.5127 8.7137 20.9529 11.1677 19.9131C13.6217 18.8317 16.346 18.291 19.3407 18.291C22.4185 18.291 25.2884 18.7901 27.9504 19.7883C30.6123 20.7866 32.8999 21.9304 34.8132 23.2197L31.0075 30.2073ZM77.1306 62.8993V33.8259L65.7758 55.475H60.9718L49.617 33.8259V62.8993H41.0073V18.6029H50.2409L63.3426 43.8082L76.5691 18.6029H85.7404V62.8993H77.1306ZM112.021 63.2112C108.777 63.2112 105.824 62.5873 103.162 61.3396C100.541 60.0918 98.2744 58.4073 96.3612 56.286C94.4895 54.1232 93.0337 51.7108 91.9939 49.0489C90.9541 46.3453 90.4342 43.5794 90.4342 40.7511C90.4342 37.798 90.9749 34.9905 92.0563 32.3286C93.1377 29.625 94.6559 27.2334 96.6107 25.1538C98.5656 23.0326 100.853 21.3689 103.474 20.1627C106.135 18.9149 109.047 18.291 112.208 18.291C115.411 18.291 118.322 18.9357 120.943 20.2251C123.604 21.5144 125.871 23.2405 127.743 25.4034C129.656 27.5662 131.112 29.9994 132.11 32.7029C133.15 35.3648 133.67 38.0892 133.67 40.8759C133.67 43.7874 133.129 46.5949 132.048 49.2984C130.966 51.9604 129.448 54.352 127.493 56.4732C125.58 58.5528 123.293 60.1958 120.631 61.402C118.01 62.6081 115.14 63.2112 112.021 63.2112ZM99.1687 40.7511C99.1687 43.3299 99.6678 45.7423 100.666 47.9883C101.706 50.2343 103.182 52.0644 105.096 53.4785C107.051 54.8927 109.38 55.5998 112.083 55.5998C114.87 55.5998 117.22 54.8719 119.133 53.4161C121.047 51.9604 122.502 50.0887 123.5 47.8011C124.499 45.5135 124.998 43.1635 124.998 40.7511C124.998 38.1724 124.478 35.76 123.438 33.514C122.398 31.2679 120.901 29.4587 118.946 28.0861C117.033 26.6719 114.745 25.9649 112.083 25.9649C109.297 25.9649 106.947 26.6927 105.033 28.1485C103.12 29.6042 101.664 31.4759 100.666 33.7635C99.6678 36.0095 99.1687 38.3387 99.1687 40.7511Z" fill="#BF62EA"/>
<path d="M210.855 36.7714C210.686 36.238 210.19 35.419 209.366 34.3145C208.56 33.1721 207.493 32.0023 206.163 30.8051C204.889 29.5873 203.437 28.6088 201.809 27.8696C197.529 25.927 194.702 26.4707 193.326 29.5007C192.828 30.599 192.773 31.6248 193.163 32.5781C193.552 33.5314 194.326 34.5447 195.483 35.6181C196.64 36.6914 198.121 37.9574 199.925 39.4159C202.267 41.301 204.198 43.1364 205.717 44.922C207.273 46.7249 208.219 48.6159 208.554 50.595C208.944 52.5535 208.581 54.7636 207.463 57.2254C206.157 60.1038 204.399 62.1151 202.19 63.2591C200.035 64.3825 197.642 64.8261 195.008 64.59C192.375 64.3539 189.732 63.6342 187.081 62.4309C184.051 61.0557 181.247 59.2345 178.667 56.9675C176.143 54.6798 174.095 52.1973 172.524 49.5201L179.058 44.3325C179.244 44.8281 179.644 45.5576 180.257 46.5211C180.887 47.4467 181.699 48.4773 182.691 49.6127C183.7 50.7102 184.857 51.7835 186.162 52.8327C187.467 53.8819 188.877 54.7503 190.392 55.4379C194.71 57.3976 197.496 56.9951 198.751 54.2303C199.284 53.0562 199.278 51.9116 198.734 50.7966C198.189 49.6816 197.233 48.517 195.866 47.3026C194.537 46.1054 192.968 44.7311 191.16 43.1796C188.911 41.2911 187.132 39.5244 185.823 37.8798C184.57 36.2144 183.827 34.5298 183.595 32.826C183.381 31.0844 183.746 29.172 184.692 27.0889C185.947 24.3241 187.639 22.306 189.769 21.0347C191.954 19.7427 194.379 19.1303 197.044 19.1977C199.725 19.2272 202.429 19.8608 205.156 21.0986C207.959 22.3707 210.366 24.0113 212.377 26.0205C214.389 28.0296 215.999 30.0167 217.208 31.9815L210.855 36.7714Z" fill="#00FFFF"/>
<path d="M156.024 59.9522C166.522 59.9522 175.033 51.4414 175.033 40.9429C175.033 30.4444 166.522 21.9337 156.024 21.9337C145.525 21.9337 137.014 30.4444 137.014 40.9429C137.014 51.4414 145.525 59.9522 156.024 59.9522Z" stroke="#00FFFF" stroke-width="7.79866" stroke-linecap="round" stroke-linejoin="round"/>
<path d="M161.568 40.9429L153.647 35.3986V46.4873L161.568 40.9429Z" fill="#0000FF" stroke="#00FFFF" stroke-width="5.84899" stroke-linecap="round" stroke-linejoin="round"/>
</svg>
